<svg width="1280" height="760" viewBox="0 0 1280 760" xmlns="http://www.w3.org/2000/svg" role="img" aria-label="Print da consulta com joins">
  <rect width="1280" height="760" fill="#f4f7fb"/>
  <rect width="250" height="760" fill="#1f2937"/>
  <text x="36" y="58" font-family="Arial" font-size="18" font-weight="700" fill="#f9fafb">Oficina Manager</text>
  <text x="36" y="149" font-family="Arial" font-size="15" fill="#d6dce6">Painel</text>
  <text x="36" y="203" font-family="Arial" font-size="15" fill="#d6dce6">Clientes</text>
  <text x="36" y="257" font-family="Arial" font-size="15" fill="#d6dce6">Veiculos</text>
  <text x="36" y="311" font-family="Arial" font-size="15" fill="#d6dce6">Servicos</text>
  <text x="36" y="365" font-family="Arial" font-size="15" fill="#d6dce6">Ordens</text>
  <rect x="18" y="392" width="214" height="42" rx="8" fill="#ffffff" opacity="0.12"/>
  <text x="36" y="419" font-family="Arial" font-size="15" fill="#ffffff">Relatorios</text>
  <text x="286" y="58" font-family="Arial" font-size="28" font-weight="700" fill="#172033">Relatorios</text>
  <rect x="286" y="98" width="906" height="274" rx="8" fill="#ffffff" stroke="#d7dee8"/>
  <text x="312" y="142" font-family="Arial" font-size="20" font-weight="700" fill="#172033">Ordens detalhadas</text>
  <rect x="1030" y="118" width="118" height="30" rx="15" fill="#ecfeff" stroke="#a5f3fc"/>
  <text x="1050" y="138" font-family="Arial" font-size="12" font-weight="800" fill="#155e75">INNER JOIN</text>
  <line x1="312" y1="182" x2="1160" y2="182" stroke="#d7dee8"/>
  <text x="312" y="218" font-family="Arial" font-size="13" font-weight="700" fill="#657184">CLIENTE</text>
  <text x="506" y="218" font-family="Arial" font-size="13" font-weight="700" fill="#657184">VEICULO</text>
  <text x="702" y="218" font-family="Arial" font-size="13" font-weight="700" fill="#657184">SERVICO</text>
  <text x="950" y="218" font-family="Arial" font-size="13" font-weight="700" fill="#657184">STATUS</text>
  <text x="312" y="270" font-family="Arial" font-size="15" fill="#172033">Carlos Lima</text>
  <text x="506" y="270" font-family="Arial" font-size="15" fill="#172033">OEA2B34 - Honda Civic</text>
  <text x="702" y="270" font-family="Arial" font-size="15" fill="#172033">Revisao preventiva</text>
  <text x="950" y="270" font-family="Arial" font-size="15" fill="#172033">Em andamento</text>
  <rect x="286" y="410" width="906" height="238" rx="8" fill="#ffffff" stroke="#d7dee8"/>
  <text x="312" y="454" font-family="Arial" font-size="20" font-weight="700" fill="#172033">Resumo por cliente</text>
  <rect x="1042" y="430" width="106" height="30" rx="15" fill="#ecfeff" stroke="#a5f3fc"/>
  <text x="1065" y="450" font-family="Arial" font-size="12" font-weight="800" fill="#155e75">LEFT JOIN</text>
  <line x1="312" y1="494" x2="1160" y2="494" stroke="#d7dee8"/>
  <text x="312" y="530" font-family="Arial" font-size="13" font-weight="700" fill="#657184">CLIENTE</text>
  <text x="636" y="530" font-family="Arial" font-size="13" font-weight="700" fill="#657184">TOTAL DE ORDENS</text>
  <text x="910" y="530" font-family="Arial" font-size="13" font-weight="700" fill="#657184">VALOR ACUMULADO</text>
  <text x="312" y="582" font-family="Arial" font-size="15" fill="#172033">Rafael Martins</text>
  <text x="682" y="582" font-family="Arial" font-size="15" fill="#172033">0</text>
  <text x="910" y="582" font-family="Arial" font-size="15" fill="#172033">R$ 0,00</text>
</svg>
