<svg width="1280" height="760" viewBox="0 0 1280 760" xmlns="http://www.w3.org/2000/svg" role="img" aria-label="Print do menu principal">
  <rect width="1280" height="760" fill="#f4f7fb"/>
  <rect width="250" height="760" fill="#1f2937"/>
  <rect x="24" y="28" width="44" height="44" rx="8" fill="#111827"/>
  <text x="84" y="56" font-family="Arial" font-size="18" font-weight="700" fill="#f9fafb">Oficina Manager</text>
  <rect x="18" y="122" width="214" height="42" rx="8" fill="#ffffff" opacity="0.12"/>
  <text x="36" y="149" font-family="Arial" font-size="15" fill="#ffffff">Painel</text>
  <text x="36" y="203" font-family="Arial" font-size="15" fill="#d6dce6">Clientes</text>
  <text x="36" y="257" font-family="Arial" font-size="15" fill="#d6dce6">Veiculos</text>
  <text x="36" y="311" font-family="Arial" font-size="15" fill="#d6dce6">Servicos</text>
  <text x="36" y="365" font-family="Arial" font-size="15" fill="#d6dce6">Ordens</text>
  <text x="36" y="419" font-family="Arial" font-size="15" fill="#d6dce6">Relatorios</text>
  <text x="286" y="58" font-family="Arial" font-size="28" font-weight="700" fill="#172033">Painel</text>
  <rect x="286" y="108" width="210" height="118" rx="8" fill="#ffffff" stroke="#d7dee8"/>
  <rect x="518" y="108" width="210" height="118" rx="8" fill="#ffffff" stroke="#d7dee8"/>
  <rect x="750" y="108" width="210" height="118" rx="8" fill="#ffffff" stroke="#d7dee8"/>
  <rect x="982" y="108" width="210" height="118" rx="8" fill="#ffffff" stroke="#d7dee8"/>
  <text x="310" y="148" font-family="Arial" font-size="15" fill="#657184">Clientes</text>
  <text x="310" y="190" font-family="Arial" font-size="34" font-weight="800" fill="#172033">4</text>
  <text x="542" y="148" font-family="Arial" font-size="15" fill="#657184">Veiculos</text>
  <text x="542" y="190" font-family="Arial" font-size="34" font-weight="800" fill="#172033">4</text>
  <text x="774" y="148" font-family="Arial" font-size="15" fill="#657184">Servicos</text>
  <text x="774" y="190" font-family="Arial" font-size="34" font-weight="800" fill="#172033">4</text>
  <text x="1006" y="148" font-family="Arial" font-size="15" fill="#657184">Ordens</text>
  <text x="1006" y="190" font-family="Arial" font-size="34" font-weight="800" fill="#172033">4</text>
  <rect x="286" y="262" width="906" height="410" rx="8" fill="#ffffff" stroke="#d7dee8"/>
  <text x="312" y="308" font-family="Arial" font-size="20" font-weight="700" fill="#172033">Ordens recentes</text>
  <line x1="312" y1="346" x2="1160" y2="346" stroke="#d7dee8"/>
  <text x="312" y="382" font-family="Arial" font-size="13" font-weight="700" fill="#657184">DATA</text>
  <text x="448" y="382" font-family="Arial" font-size="13" font-weight="700" fill="#657184">CLIENTE</text>
  <text x="650" y="382" font-family="Arial" font-size="13" font-weight="700" fill="#657184">VEICULO</text>
  <text x="820" y="382" font-family="Arial" font-size="13" font-weight="700" fill="#657184">SERVICO</text>
  <text x="1010" y="382" font-family="Arial" font-size="13" font-weight="700" fill="#657184">VALOR</text>
  <text x="312" y="432" font-family="Arial" font-size="15" fill="#172033">2026-04-15</text>
  <text x="448" y="432" font-family="Arial" font-size="15" fill="#172033">Mariana Rocha</text>
  <text x="650" y="432" font-family="Arial" font-size="15" fill="#172033">NII4D56</text>
  <text x="820" y="432" font-family="Arial" font-size="15" fill="#172033">Diagnostico eletronico</text>
  <text x="1010" y="432" font-family="Arial" font-size="15" fill="#172033">R$ 150,00</text>
</svg>
